<?xml version="1.0" encoding="utf-8"?>
<!-- Generator: Adobe Illustrator 17.1.0, SVG Export Plug-In . SVG Version: 6.00 Build 0)  -->
<!DOCTYPE svg PUBLIC "-//W3C//DTD SVG 1.1//EN" "http://www.w3.org/Graphics/SVG/1.1/DTD/svg11.dtd">
<svg version="1.1" id="Layer_1" xmlns="http://www.w3.org/2000/svg" xmlns:xlink="http://www.w3.org/1999/xlink" x="0px" y="0px"
	 viewBox="0 0 50 50" enable-background="new 0 0 50 50" xml:space="preserve">
<g>
	<path fill="#FFFFFF" d="M33.731,21.439c0.465,1.083,0.828,2.146,1.091,3.182c0.263,1.038,0.425,1.983,0.488,2.834
		c0.062,0.853,0.017,1.565-0.138,2.138c-0.155,0.573-0.418,0.938-0.79,1.091c-0.495,0.187-0.96,0.157-1.393-0.093
		c-0.435-0.248-0.953-0.548-1.558-0.906c-0.603-0.355-1.355-0.673-2.253-0.953c-0.898-0.278-2.059-0.34-3.484-0.185
		c-0.433,0.062-0.766,0.21-0.998,0.44c-0.233,0.233-0.272,0.52-0.117,0.86c0.032,0.125,0.1,0.295,0.21,0.51
		c0.108,0.217,0.216,0.457,0.325,0.72c0.108,0.265,0.21,0.512,0.302,0.745c0.093,0.231,0.17,0.41,0.233,0.533
		c0.093,0.248,0.278,0.418,0.558,0.51c0.278,0.095,0.463,0.25,0.556,0.465c0.095,0.217,0.1,0.427,0.025,0.628
		c-0.078,0.202-0.255,0.348-0.535,0.442c-0.125,0.062-0.302,0.138-0.533,0.231c-0.233,0.095-0.465,0.187-0.698,0.28
		s-0.457,0.178-0.673,0.255c-0.217,0.078-0.372,0.132-0.465,0.163c-0.217,0.062-0.442-0.008-0.675-0.21
		c-0.231-0.2-0.425-0.456-0.58-0.766c-0.062-0.123-0.147-0.318-0.255-0.58c-0.11-0.263-0.233-0.55-0.372-0.86
		c-0.138-0.31-0.27-0.611-0.393-0.906c-0.125-0.295-0.233-0.535-0.325-0.72c-0.062-0.155-0.163-0.255-0.302-0.302
		c-0.14-0.045-0.287-0.085-0.442-0.115c-0.155-0.03-0.333-0.085-0.533-0.163c-0.202-0.078-0.395-0.255-0.582-0.535
		c-0.123,0.062-0.248,0.11-0.371,0.14c-0.093,0.062-0.185,0.1-0.28,0.115c-0.093,0.017-0.17,0.04-0.231,0.07
		c-0.28,0.093-0.567,0.11-0.86,0.047c-0.295-0.062-0.58-0.17-0.86-0.325c-0.278-0.155-0.533-0.355-0.766-0.605
		c-0.233-0.248-0.395-0.51-0.488-0.79c-0.25-0.526-0.295-1.138-0.14-1.834c0.155-0.698,0.495-1.17,1.023-1.418
		c2.074-0.836,3.732-1.673,4.97-2.509c1.238-0.836,2.191-1.633,2.858-2.393c0.665-0.758,1.121-1.471,1.371-2.136
		c0.248-0.665,0.433-1.27,0.558-1.813c0.123-0.541,0.248-0.998,0.371-1.371c0.123-0.371,0.403-0.65,0.837-0.836
		c0.371-0.155,0.819-0.078,1.346,0.233c0.527,0.31,1.085,0.783,1.673,1.416c0.588,0.635,1.168,1.41,1.743,2.323
		C32.748,19.403,33.266,20.386,33.731,21.439z M33.081,28.407c0.093-0.03,0.155-0.216,0.185-0.558
		c0.03-0.34,0.023-0.781-0.023-1.323c-0.047-0.543-0.155-1.178-0.325-1.906s-0.442-1.509-0.813-2.346
		c-0.372-0.836-0.768-1.594-1.185-2.276c-0.418-0.681-0.82-1.255-1.208-1.718c-0.388-0.465-0.72-0.813-0.998-1.045
		c-0.28-0.233-0.465-0.333-0.558-0.302c-0.093,0.03-0.163,0.233-0.21,0.603c-0.045,0.372-0.045,0.853,0,1.44
		c0.047,0.59,0.155,1.27,0.325,2.045c0.17,0.773,0.442,1.578,0.813,2.416c0.372,0.836,0.768,1.571,1.185,2.206
		c0.418,0.635,0.828,1.161,1.231,1.58c0.403,0.418,0.743,0.728,1.023,0.928C32.801,28.354,32.988,28.44,33.081,28.407z"/>
</g>
</svg>
