<svg xmlns="http://www.w3.org/2000/svg" viewBox="0 0 1000 1000"><defs><style>.a{fill:#fff;}.b,.c{fill:none;stroke:#fff;stroke-miterlimit:10;stroke-width:20px;}.b{fill-rule:evenodd;}</style></defs><title>devis</title><path class="a" d="M500,48A452.12,452.12,0,0,1,675.93,916.49a452.12,452.12,0,0,1-351.87-833A449.15,449.15,0,0,1,500,48m0-20C239.32,28,28,239.32,28,500S239.32,972,500,972,972,760.68,972,500,760.68,28,500,28Z"/><polyline class="b" points="714.85 295.84 612.85 182.75 285.15 182.75 285.15 817.25 712.15 817.25 712.15 298.84 610.15 298.84 610.15 185.75"/><line class="c" x1="386.65" y1="391.75" x2="610.65" y2="391.75"/><line class="c" x1="386.65" y1="479.75" x2="610.65" y2="479.75"/><line class="c" x1="386.65" y1="567.75" x2="610.65" y2="567.75"/><line class="c" x1="386.65" y1="655.75" x2="610.65" y2="655.75"/></svg>