<svg xmlns="http://www.w3.org/2000/svg" viewBox="0 0 1000 1000"><defs><style>.a{fill:#ff4054;}.b{fill:none;stroke:#ff4054;stroke-miterlimit:10;stroke-width:20px;}</style></defs><title>dashboard</title><path class="a" d="M500,48A452.12,452.12,0,0,1,675.93,916.49a452.12,452.12,0,0,1-351.87-833A449.15,449.15,0,0,1,500,48m0-20C239.32,28,28,239.32,28,500S239.32,972,500,972,972,760.68,972,500,760.68,28,500,28Z"/><line class="b" x1="271" y1="191" x2="270.5" y2="554.5"/><line class="b" x1="270.75" y1="644" x2="270.75" y2="808.5"/><rect class="b" x="202.5" y="554.5" width="136" height="89"/><line class="b" x1="500" y1="191" x2="500" y2="345.5"/><line class="b" x1="499.75" y1="434.5" x2="499.75" y2="808.5"/><rect class="b" x="431.5" y="345.5" width="136" height="89"/><line class="b" x1="729" y1="191" x2="729" y2="477.5"/><line class="b" x1="728.75" y1="566.5" x2="728.75" y2="808.5"/><rect class="b" x="660.5" y="477.5" width="136" height="89"/></svg>