<svg xmlns="http://www.w3.org/2000/svg" viewBox="0 0 1000 1000"><defs><style>.a{fill:#fff;}.b,.c{fill:none;stroke:#fff;stroke-miterlimit:10;stroke-width:20px;}.b{fill-rule:evenodd;}</style></defs><title>contrat</title><path class="a" d="M500,48A452.12,452.12,0,0,1,675.93,916.49a452.12,452.12,0,0,1-351.87-833A449.15,449.15,0,0,1,500,48m0-20C239.32,28,28,239.32,28,500S239.32,972,500,972,972,760.68,972,500,760.68,28,500,28Z"/><polyline class="b" points="636.5 219.25 311.5 219.25 311.5 780.75 688.5 780.75 688.5 444"/><path class="c" d="M774.72,261.68,549.15,466l-49.9-54.93L724.87,206.71c19.05-17.26,35.65-10,49.42,5.21h0C788.08,227.09,793.79,244.41,774.72,261.68Z"/><line class="c" x1="717.34" y1="213.68" x2="766.95" y2="268.29"/><path class="c" d="M498.5,411.74l-33,75c-1.83,4.18.52,6.76,4.86,5.35l78-25.47"/></svg>