<svg xmlns="http://www.w3.org/2000/svg" viewBox="0 0 1000 1000"><defs><style>.a{fill:#fff;}.b{fill:none;stroke:#fff;stroke-miterlimit:10;stroke-width:20px;}</style></defs><title>financement</title><path class="a" d="M500,48A452.12,452.12,0,0,1,675.93,916.49a452.12,452.12,0,0,1-351.87-833A449.15,449.15,0,0,1,500,48m0-20C239.32,28,28,239.32,28,500S239.32,972,500,972,972,760.68,972,500,760.68,28,500,28Z"/><path class="b" d="M700.54,315.5c-102-102-267.48-102-369.53,0S229,583,331,685s267.48,102,369.53,0"/><line class="b" x1="432.4" y1="545.8" x2="152.46" y2="545.8"/><polygon class="a" points="392.56 511.89 426.49 545.8 392.56 579.71 421.36 579.71 455.26 545.8 421.36 511.89 392.56 511.89"/><line class="b" x1="432.4" y1="454.72" x2="152.46" y2="454.72"/><polygon class="a" points="392.56 420.81 426.49 454.72 392.56 488.63 421.36 488.63 455.26 454.72 421.36 420.81 392.56 420.81"/></svg>