<svg xmlns="http://www.w3.org/2000/svg" viewBox="0 0 1000 1000"><defs><style>.a{fill:#ff4054;}.b{fill:none;stroke:#ff4054;stroke-miterlimit:10;stroke-width:20px;}</style></defs><title>frais_2</title><path class="a" d="M500,48A452.12,452.12,0,0,1,675.93,916.49a452.12,452.12,0,0,1-351.87-833A449.15,449.15,0,0,1,500,48m0-20C239.32,28,28,239.32,28,500S239.32,972,500,972,972,760.68,972,500,760.68,28,500,28Z"/><path class="b" d="M620.81,494.55a120.26,120.26,0,1,0-68.17,155.82"/><line class="b" x1="388.52" y1="462.88" x2="475.48" y2="500.92"/><line class="b" x1="371.72" y1="501.28" x2="458.68" y2="539.33"/><path class="b" d="M572.66,817.42,246.24,674.62l181.09-414L616.55,186a49,49,0,0,1,63.61,27.83l73.6,189.63Z"/><circle class="b" cx="619.57" cy="266.55" r="37.82" transform="translate(127.05 727.35) rotate(-66.37)"/></svg>