<svg xmlns="http://www.w3.org/2000/svg" viewBox="0 0 1000 1000"><defs><style>.a{fill:#ff4054;}.b{fill:none;stroke:#ff4054;stroke-miterlimit:10;stroke-width:20px;}</style></defs><title>frais</title><path class="a" d="M500,48A452.12,452.12,0,0,1,675.93,916.49a452.12,452.12,0,0,1-351.87-833A449.15,449.15,0,0,1,500,48m0-20C239.32,28,28,239.32,28,500S239.32,972,500,972,972,760.68,972,500,760.68,28,500,28Z"/><path class="b" d="M711,315.5c-102-102-267.48-102-369.53,0s-102,267.48,0,369.53S609,787.07,711,685"/><line class="b" x1="185.82" y1="454.72" x2="465.76" y2="454.72"/><polygon class="a" points="225.66 488.63 191.73 454.72 225.66 420.81 196.87 420.81 162.96 454.72 196.87 488.63 225.66 488.63"/><line class="b" x1="185.82" y1="545.8" x2="465.76" y2="545.8"/><polygon class="a" points="225.66 579.71 191.73 545.8 225.66 511.89 196.87 511.89 162.96 545.8 196.87 579.71 225.66 579.71"/></svg>