<svg xmlns="http://www.w3.org/2000/svg" viewBox="0 0 1000 1000"><defs><style>.a{fill:#fff;}.b{fill:none;stroke:#fff;stroke-miterlimit:10;stroke-width:20px;}</style></defs><title>gestion</title><path class="a" d="M500,48A452.12,452.12,0,0,1,675.93,916.49a452.12,452.12,0,0,1-351.87-833A449.15,449.15,0,0,1,500,48m0-20C239.32,28,28,239.32,28,500S239.32,972,500,972,972,760.68,972,500,760.68,28,500,28Z"/><circle class="b" cx="618.46" cy="636.81" r="52.65"/><path class="b" d="M586.75,700.63h63.42a53.25,53.25,0,0,1,53.25,53.25V815.5a0,0,0,0,1,0,0H533.5a0,0,0,0,1,0,0V753.88A53.25,53.25,0,0,1,586.75,700.63Z"/><circle class="b" cx="381.54" cy="636.81" r="52.65"/><path class="b" d="M349.83,700.63h63.42a53.25,53.25,0,0,1,53.25,53.25V815.5a0,0,0,0,1,0,0H296.58a0,0,0,0,1,0,0V753.88A53.25,53.25,0,0,1,349.83,700.63Z"/><path class="b" d="M549.06,267.46c0-29.08-23.57-27.12-52.65-27.12s-52.65-2-52.65,27.12a52.65,52.65,0,1,0,105.3,0Z"/><path class="b" d="M464.7,331.28h63.42a53.25,53.25,0,0,1,53.25,53.25v61.62a0,0,0,0,1,0,0H411.45a0,0,0,0,1,0,0V384.53A53.25,53.25,0,0,1,464.7,331.28Z"/><path class="b" d="M417.44,359.34V259.49a75.21,75.21,0,0,1,75-75h8a75.21,75.21,0,0,1,75,75V360.14"/><circle class="b" cx="499.6" cy="549.46" r="59.03"/><line class="b" x1="499.6" y1="490.43" x2="499.6" y2="445.75"/><line class="b" x1="553.63" y1="572.37" x2="581.98" y2="600.72"/><line class="b" x1="418.02" y1="600.72" x2="443.97" y2="574.78"/></svg>