<svg xmlns="http://www.w3.org/2000/svg" viewBox="0 0 1000 1000"><defs><style>.a{fill:#ff4054;}.b{fill:none;stroke:#ff4054;stroke-miterlimit:10;stroke-width:20px;}</style></defs><title>materiel_2</title><path class="a" d="M500,48A452.12,452.12,0,0,1,675.93,916.49a452.12,452.12,0,0,1-351.87-833A449.15,449.15,0,0,1,500,48m0-20C239.32,28,28,239.32,28,500S239.32,972,500,972,972,760.68,972,500,760.68,28,500,28Z"/><rect class="b" x="405.5" y="565.5" width="269" height="45.5"/><rect class="b" x="405.5" y="519.5" width="269" height="45.5"/><rect class="b" x="405.5" y="473.5" width="269" height="45.5"/><rect class="b" x="405.5" y="427.5" width="269" height="45.5"/><polygon class="b" points="319 611.5 319 283.5 271 283.5 271 601.5 271 691.5 319 691.5 809 691.5 809 611.5 319 611.5"/><rect class="b" x="191" y="235.5" width="128" height="48" transform="translate(510 519) rotate(180)"/><circle class="b" cx="351" cy="732.5" r="32"/><circle class="b" cx="758" cy="732.5" r="32"/></svg>