<svg xmlns="http://www.w3.org/2000/svg" viewBox="0 0 1000 1000"><defs><style>.a{fill:#fff;}.b{fill:none;stroke:#fff;stroke-miterlimit:10;stroke-width:20px;}</style></defs><title>materiel</title><path class="a" d="M500,48A452.12,452.12,0,0,1,675.93,916.49a452.12,452.12,0,0,1-351.87-833A449.15,449.15,0,0,1,500,48m0-20C239.32,28,28,239.32,28,500S239.32,972,500,972,972,760.68,972,500,760.68,28,500,28Z"/><path class="b" d="M388.49,424.72,326.76,663.36A123,123,0,0,0,415,813.25h0A123,123,0,0,0,564.92,725L674.11,302.87a96,96,0,0,0-68.9-117h0a96,96,0,0,0-117,68.9l-85.9,332.07A60,60,0,0,0,445.39,660h0A60,60,0,0,0,518.5,616.9l84.9-328.2"/></svg>