<?xml version="1.0" encoding="utf-8"?>
<!-- Generator: Adobe Illustrator 16.2.1, SVG Export Plug-In . SVG Version: 6.00 Build 0)  -->
<!DOCTYPE svg PUBLIC "-//W3C//DTD SVG 1.1 Tiny//EN" "http://www.w3.org/Graphics/SVG/1.1/DTD/svg11-tiny.dtd">
<svg version="1.1" baseProfile="tiny" id="Layer_1" xmlns="http://www.w3.org/2000/svg" xmlns:xlink="http://www.w3.org/1999/xlink"
	 x="0px" y="0px" width="595.281px" height="95px" viewBox="0 0 595.281 95" xml:space="preserve">
<g id="SE">
	<g>
		<path fill="#949087" d="M471.533,52.495c0-5.877-4.41-10.654-10.654-10.654c-7.227,0-11.391,3.798-12.494,10.654H471.533z
			 M448.261,65.109c0.611,7.227,4.777,12.369,12.371,12.369c3.92,0,8.203-1.471,10.166-4.53h22.656
			c-4.9,13.717-18.25,20.087-32.699,20.087c-20.33,0-35.639-12.003-35.639-33.192c0-18.493,13.473-33.555,33.557-33.555
			c25.23,0,36.129,14.084,36.129,38.823h-46.541V65.109z"/>
		<path fill="#949087" d="M417.337,62.999c-1.241-2.06-2.905-3.808-4.946-5.192c-1.992-1.354-4.295-2.455-6.845-3.271
			c-2.5-0.801-5.09-1.491-7.69-2.044c-2.524-0.56-5.004-1.076-7.44-1.556c-2.377-0.465-4.521-0.994-6.363-1.576
			c-1.764-0.56-3.195-1.28-4.26-2.146c-0.935-0.754-1.388-1.702-1.388-2.896c0-1.017,0.244-1.784,0.746-2.349
			c0.572-0.64,1.254-1.123,2.091-1.467c0.866-0.36,1.854-0.595,2.93-0.704c1.135-0.115,2.199-0.174,3.17-0.174
			c3.014,0,5.658,0.548,7.859,1.622c2.021,0.992,3.112,2.878,3.336,5.769l0.075,0.935h18.972l-0.103-1.105
			c-0.349-3.964-1.442-7.311-3.252-9.948c-1.791-2.606-4.078-4.727-6.795-6.307c-2.687-1.557-5.771-2.678-9.168-3.325
			c-6.722-1.292-14.154-1.266-20.899-0.061c-3.438,0.605-6.584,1.682-9.347,3.197c-2.817,1.541-5.117,3.672-6.836,6.34
			c-1.733,2.696-2.613,6.166-2.613,10.312c0,2.89,0.646,5.372,1.918,7.388c1.244,1.98,2.914,3.649,4.96,4.953
			c1.983,1.27,4.284,2.307,6.84,3.084c2.477,0.76,5.062,1.428,7.694,1.987c6.283,1.253,11.244,2.521,14.757,3.769
			c3.145,1.123,4.674,2.676,4.674,4.752c0,1.285-0.302,2.311-0.924,3.127c-0.658,0.867-1.498,1.572-2.494,2.098
			c-1.041,0.547-2.222,0.957-3.506,1.217c-3.138,0.635-5.982,0.473-8.63-0.17c-1.506-0.365-2.856-0.939-4.021-1.705
			c-1.131-0.751-2.062-1.728-2.773-2.902c-0.693-1.135-1.047-2.533-1.047-4.16v-1.016h-18.996l0.043,1.057
			c0.174,4.297,1.223,7.932,3.121,10.812c1.873,2.854,4.309,5.178,7.236,6.911c2.889,1.718,6.225,2.958,9.924,3.69
			c3.645,0.725,7.43,1.091,11.25,1.091c3.713,0,7.43-0.347,11.049-1.032c3.658-0.688,6.963-1.913,9.814-3.629
			c2.887-1.743,5.26-4.073,7.055-6.93c1.812-2.893,2.734-6.496,2.734-10.719C419.248,67.695,418.605,65.094,417.337,62.999z"/>
	</g>
</g>
<g id="GUIDES">
</g>
<path fill="#DD2222" d="M332.615,27.173h16.85v15.106h-16.85v22.413c0,5.939,1.27,8.548,7.115,8.548
	c2.334,0,9.734-0.025,9.734-0.025V92.18h-19.301c-9.812,0-20.67-1.593-20.67-19.191V42.279h-10.277V27.173h10.277V3.033h23.12
	L332.615,27.173L332.615,27.173z"/>
<polygon fill="#DD2222" points="88.787,72.466 88.787,17.886 89.032,17.886 108.357,72.466 118.022,72.466 93.468,3.033 
	78.278,3.033 78.278,72.466 "/>
<polygon fill="#DD2222" points="131.232,72.466 150.554,17.886 150.793,17.886 150.793,72.466 161.298,72.466 161.298,3.033 
	146.122,3.033 121.445,72.466 "/>
<path fill="#DD2222" d="M207.047,40.052c3.724,0,7.591,1.605,7.591,5.946c0,4.087-3.163,5.07-6.315,5.693
	c-11.528,2.302-33.131,1.781-34.041,20.773h23.435c0.073-4.199,2.737-5.559,7.806-6.787c3.155-0.736,6.31-1.604,9.116-3.096v5.953
	c-0.075,1.5-0.412,2.77-0.824,3.93h23.003V50.704c0-12.396,0.24-25.142-28.731-25.142c-14.347,0-30.467,2.977-31.158,21.061h21.476
	C198.523,43.896,199.931,40.052,207.047,40.052"/>
<path fill="#DD2222" d="M270.273,72.466v-6.405c0-13.761,4.883-19.438,14.004-19.438c4.668,0,6.758,0.739,9.1,1.596V26.553
	c-2.219-0.622-4.432-0.991-6.787-0.991c-8.4,0-13.299,4.207-17.027,11.894h-0.25V27.173h-22.168v45.293H270.273z"/>
<path fill="#DD2222" d="M37.832,41.657c-13.428-3.216-26.736-4.823-26.736-15.726c0-11.521,9.341-15.106,18.681-15.106
	c11.439,0,19.379,5.454,20.665,18.081h10.517C60.246,9.457,47.286,0.921,30.241,0.921C15.057,0.921,0,8.849,0,26.802
	C0,43.029,13.43,47.11,26.738,50.22c13.311,3.08,26.627,5.188,26.627,17.328c0,1.836-0.294,3.455-0.73,4.918h11.191
	c0.343-1.659,0.626-3.37,0.626-5.295C64.453,49.839,51.137,44.881,37.832,41.657"/>
<rect x="1.843" y="61.48" fill="#DD2222" width="10.351" height="10.986"/>
</svg>
