<?xml version="1.0" encoding="utf-8"?>
<!-- Generator: Adobe Illustrator 16.2.1, SVG Export Plug-In . SVG Version: 6.00 Build 0)  -->
<!DOCTYPE svg PUBLIC "-//W3C//DTD SVG 1.1 Tiny//EN" "http://www.w3.org/Graphics/SVG/1.1/DTD/svg11-tiny.dtd">
<svg version="1.1" baseProfile="tiny" id="Layer_1" xmlns="http://www.w3.org/2000/svg" xmlns:xlink="http://www.w3.org/1999/xlink"
	 x="0px" y="0px" width="595.281px" height="95px" viewBox="0 0 595.281 95" xml:space="preserve">
<g id="NL">
	<path fill="#949087" d="M453.273,92.169h-22.42V2.49h22.42V92.169z"/>
	<path fill="#949087" d="M379.341,92.168V78.257h-0.012V57.911h0.004c0-12.653,3.832-16.738,9.83-16.738
		c5.996,0,10.729,1.468,10.828,12.738h0.006v24.347h-0.08v13.911h22.312V52.227c0-0.178-0.014-0.346-0.016-0.521
		c-0.039-3.811-0.469-7.307-1.321-10.467c-0.026-0.102-0.062-0.198-0.09-0.3c-2.358-5.972-5.21-10.794-11.374-13.382
		c-3.148-1.322-7.641-1.959-11.312-2.063c-5.336-0.151-10.593,1.788-13.119,3.536c-2.649,1.834-4.727,4.311-6.229,7.229h0.18v-9.025
		h-21.916v64.936L379.341,92.168L379.341,92.168z"/>
</g>
<g id="GUIDES">
</g>
<path fill="#DD2222" d="M332.615,27.173h16.85v15.106h-16.85v22.413c0,5.939,1.27,8.548,7.115,8.548
	c2.334,0,9.734-0.025,9.734-0.025V92.18h-19.301c-9.812,0-20.67-1.593-20.67-19.191V42.279h-10.277V27.173h10.277V3.033h23.12
	L332.615,27.173L332.615,27.173z"/>
<polygon fill="#DD2222" points="88.787,72.466 88.787,17.886 89.032,17.886 108.357,72.466 118.022,72.466 93.468,3.033 
	78.278,3.033 78.278,72.466 "/>
<polygon fill="#DD2222" points="131.232,72.466 150.554,17.886 150.793,17.886 150.793,72.466 161.298,72.466 161.298,3.033 
	146.122,3.033 121.445,72.466 "/>
<path fill="#DD2222" d="M207.047,40.052c3.724,0,7.591,1.605,7.591,5.946c0,4.087-3.163,5.07-6.315,5.693
	c-11.528,2.302-33.131,1.781-34.041,20.773h23.435c0.073-4.199,2.737-5.559,7.806-6.787c3.155-0.736,6.31-1.604,9.116-3.096v5.953
	c-0.075,1.5-0.412,2.77-0.824,3.93h23.003V50.704c0-12.396,0.24-25.142-28.731-25.142c-14.347,0-30.467,2.977-31.158,21.061h21.476
	C198.523,43.896,199.931,40.052,207.047,40.052"/>
<path fill="#DD2222" d="M270.273,72.466v-6.405c0-13.761,4.883-19.438,14.004-19.438c4.668,0,6.758,0.739,9.1,1.596V26.553
	c-2.219-0.622-4.432-0.991-6.787-0.991c-8.4,0-13.299,4.207-17.027,11.894h-0.25V27.173h-22.168v45.293H270.273z"/>
<path fill="#DD2222" d="M37.832,41.657c-13.428-3.216-26.736-4.823-26.736-15.726c0-11.521,9.341-15.106,18.681-15.106
	c11.439,0,19.379,5.454,20.665,18.081h10.517C60.246,9.457,47.286,0.921,30.241,0.921C15.057,0.921,0,8.849,0,26.802
	C0,43.029,13.43,47.11,26.738,50.22c13.311,3.08,26.627,5.188,26.627,17.328c0,1.836-0.294,3.455-0.73,4.918h11.191
	c0.343-1.659,0.626-3.37,0.626-5.295C64.453,49.839,51.137,44.881,37.832,41.657"/>
<rect x="1.843" y="61.48" fill="#DD2222" width="10.351" height="10.986"/>
</svg>
