<?xml version="1.0" encoding="utf-8"?>
<!-- Generator: Adobe Illustrator 16.2.1, SVG Export Plug-In . SVG Version: 6.00 Build 0)  -->
<!DOCTYPE svg PUBLIC "-//W3C//DTD SVG 1.1 Tiny//EN" "http://www.w3.org/Graphics/SVG/1.1/DTD/svg11-tiny.dtd">
<svg version="1.1" baseProfile="tiny" id="Layer_1" xmlns="http://www.w3.org/2000/svg" xmlns:xlink="http://www.w3.org/1999/xlink"
	 x="0px" y="0px" width="595.281px" height="95px" viewBox="0 0 595.281 95" xml:space="preserve">
<g id="AT">
	<g>
		<path fill="#949087" d="M420.102,86.407c-0.343-2.591-0.513-7.296-0.513-10.132l-0.006-3.979V50.611
			c0-6.061,0.051-12.202-3.319-16.886c-2.949-4.1-8.517-7.085-19.035-7.92c-1.955-0.154-4.062-0.243-6.377-0.243
			c-14.347,0-30.468,2.966-31.158,20.984h0.205h21.271c0.101-2.259,1.104-5.282,5.525-6.237c0.896-0.194,1.92-0.309,3.119-0.309
			c3.723,0,7.59,1.598,7.59,5.923c0,4.072-3.162,5.056-6.314,5.675c-11.528,2.293-33.131,1.774-34.041,20.698h-0.008
			c-0.008,0.271-0.02,0.543-0.02,0.824c0,3.237,0.789,7.028,1.943,9.375c0.19,0.394,0.396,0.801,0.615,1.215
			c0.217,0.416,0.446,0.838,0.69,1.258c2.875,3.447,5.875,6.438,10.688,7.755c0.342,0.092,0.688,0.176,1.035,0.256
			c2.443,0.559,5.049,0.838,7.818,0.838c4.105,0,8.125-0.568,12.061-1.701c3.935-1.131,7.355-3.115,10.264-5.949
			c0.085,1.053,0.234,2.086,0.451,3.096c0.211,1.014,0.49,2.004,0.834,2.975h18.475C421.042,90.941,420.443,88.999,420.102,86.407z
			 M396.564,72.296c-0.289,0.785-0.66,1.565-1.123,2.343c-0.234,0.395-0.439,0.729-0.646,1.022
			c-0.205,0.297-0.412,0.553-0.649,0.797c-2.998,3.487-9.998,4.483-12.832-1.017c-0.146-0.293-0.265-0.602-0.358-0.926
			c-0.193-0.646-0.289-1.354-0.289-2.127c0-1.52,0.352-2.781,1.033-3.803c1.252-1.492,3.461-2.299,6.592-3.055
			c2.791-0.648,5.582-1.402,8.131-2.598c0.332-0.154,0.662-0.314,0.984-0.486v0.371v5.561c-0.074,1.494-0.412,2.76-0.824,3.916"/>
		<path fill="#949087" d="M459.38,27.173h16.852v15.106H459.38v22.413c0,5.939,1.271,8.548,7.115,8.548
			c2.334,0,9.734-0.025,9.734-0.025V92.18h-19.301c-9.811,0-20.67-1.593-20.67-19.191V42.279h-10.275V27.173h10.275V3.033h23.121
			V27.173z"/>
	</g>
</g>
<g id="GUIDES">
</g>
<path fill="#DD2222" d="M332.615,27.173h16.85v15.106h-16.85v22.413c0,5.939,1.27,8.548,7.115,8.548
	c2.334,0,9.734-0.025,9.734-0.025V92.18h-19.301c-9.812,0-20.67-1.593-20.67-19.191V42.279h-10.277V27.173h10.277V3.033h23.12
	L332.615,27.173L332.615,27.173z"/>
<polygon fill="#DD2222" points="88.787,72.466 88.787,17.886 89.032,17.886 108.357,72.466 118.022,72.466 93.468,3.033 
	78.278,3.033 78.278,72.466 "/>
<polygon fill="#DD2222" points="131.232,72.466 150.554,17.886 150.793,17.886 150.793,72.466 161.298,72.466 161.298,3.033 
	146.122,3.033 121.445,72.466 "/>
<path fill="#DD2222" d="M207.047,40.052c3.724,0,7.591,1.605,7.591,5.946c0,4.087-3.163,5.07-6.315,5.693
	c-11.528,2.302-33.131,1.781-34.041,20.773h23.435c0.073-4.199,2.737-5.559,7.806-6.787c3.155-0.736,6.31-1.604,9.116-3.096v5.953
	c-0.075,1.5-0.412,2.77-0.824,3.93h23.003V50.704c0-12.396,0.24-25.142-28.731-25.142c-14.347,0-30.467,2.977-31.158,21.061h21.476
	C198.523,43.896,199.931,40.052,207.047,40.052"/>
<path fill="#DD2222" d="M270.273,72.466v-6.405c0-13.761,4.883-19.438,14.004-19.438c4.668,0,6.758,0.739,9.1,1.596V26.553
	c-2.219-0.622-4.432-0.991-6.787-0.991c-8.4,0-13.299,4.207-17.027,11.894h-0.25V27.173h-22.168v45.293H270.273z"/>
<path fill="#DD2222" d="M37.832,41.657c-13.428-3.216-26.736-4.823-26.736-15.726c0-11.521,9.341-15.106,18.681-15.106
	c11.439,0,19.379,5.454,20.665,18.081h10.517C60.246,9.457,47.286,0.921,30.241,0.921C15.057,0.921,0,8.849,0,26.802
	C0,43.029,13.43,47.11,26.738,50.22c13.311,3.08,26.627,5.188,26.627,17.328c0,1.836-0.294,3.455-0.73,4.918h11.191
	c0.343-1.659,0.626-3.37,0.626-5.295C64.453,49.839,51.137,44.881,37.832,41.657"/>
<rect x="1.843" y="61.48" fill="#DD2222" width="10.351" height="10.986"/>
</svg>
