<?xml version="1.0" encoding="utf-8"?>
<!-- Generator: Adobe Illustrator 16.0.0, SVG Export Plug-In . SVG Version: 6.00 Build 0)  -->
<!DOCTYPE svg PUBLIC "-//W3C//DTD SVG 1.1//EN" "http://www.w3.org/Graphics/SVG/1.1/DTD/svg11.dtd">
<svg version="1.1" id="Layer_1" xmlns="http://www.w3.org/2000/svg" xmlns:xlink="http://www.w3.org/1999/xlink" x="0px" y="0px"
	 width="595.281px" height="95px" viewBox="0 0 595.281 95" enable-background="new 0 0 595.281 95" xml:space="preserve">
<g id="GUIDES">
</g>
<g>
	<path fill="#DD2222" d="M332.615,27.171h16.85v15.107h-16.85V64.69c0,5.939,1.27,8.547,7.115,8.547
		c2.334,0,9.734-0.025,9.734-0.025v18.965h-19.301c-9.811,0-20.67-1.592-20.67-19.191V42.278h-10.277V27.171h10.277V3.031h23.121
		V27.171z"/>
	<polygon fill="#DD2222" points="88.787,72.464 88.787,17.884 89.032,17.884 108.357,72.464 118.022,72.464 93.469,3.031 
		78.278,3.031 78.278,72.464 	"/>
	<polygon fill="#DD2222" points="131.232,72.464 150.554,17.884 150.794,17.884 150.794,72.464 161.298,72.464 161.298,3.031 
		146.122,3.031 121.445,72.464 	"/>
	<path fill="#DD2222" d="M207.048,40.05c3.724,0,7.591,1.605,7.591,5.947c0,4.086-3.163,5.07-6.315,5.693
		c-11.528,2.301-33.131,1.781-34.041,20.773h23.435c0.073-4.199,2.737-5.559,7.806-6.787c3.155-0.736,6.31-1.604,9.116-3.096v5.953
		c-0.075,1.5-0.412,2.77-0.824,3.93h23.003V50.702c0-12.395,0.24-25.142-28.731-25.142c-14.347,0-30.467,2.978-31.158,21.061h21.477
		C198.523,43.896,199.932,40.05,207.048,40.05"/>
	<path fill="#DD2222" d="M270.273,72.464v-6.406c0-13.76,4.883-19.437,14.004-19.437c4.668,0,6.758,0.739,9.1,1.597V26.552
		c-2.219-0.623-4.432-0.991-6.787-0.991c-8.401,0-13.299,4.207-17.028,11.894h-0.25V27.171h-22.169v45.293H270.273z"/>
	<path fill="#DD2222" d="M37.832,41.655c-13.428-3.216-26.736-4.822-26.736-15.727c0-11.521,9.342-15.105,18.681-15.105
		c11.439,0,19.379,5.453,20.665,18.081h10.517C60.246,9.455,47.286,0.919,30.241,0.919C15.057,0.919,0,8.847,0,26.801
		c0,16.228,13.43,20.308,26.738,23.417c13.311,3.08,26.628,5.188,26.628,17.328c0,1.836-0.295,3.455-0.73,4.918h11.191
		c0.343-1.66,0.626-3.371,0.626-5.295C64.453,49.837,51.137,44.88,37.832,41.655"/>
</g>
<rect x="1.843" y="61.479" fill="#DD2222" width="10.352" height="10.986"/>
<polygon fill="#949087" points="357.053,91.937 379.221,91.937 379.24,27.171 357.072,27.171 "/>
<rect x="357.021" y="2.988" fill="#949087" width="22.25" height="18.375"/>
<path fill="#949087" d="M420.201,27.171h16.85v15.107h-16.85V64.69c0,5.939,1.27,8.547,7.115,8.547c2.334,0,9.734-0.025,9.734-0.025
	v18.965H417.75c-9.811,0-20.67-1.592-20.67-19.191V42.278h-10.277V27.171h10.277V3.031h23.121V27.171z"/>
</svg>
