<?xml version="1.0" encoding="utf-8"?>
<!-- Generator: Adobe Illustrator 17.0.2, SVG Export Plug-In . SVG Version: 6.00 Build 0)  -->
<!DOCTYPE svg PUBLIC "-//W3C//DTD SVG 1.1//EN" "http://www.w3.org/Graphics/SVG/1.1/DTD/svg11.dtd">
<svg version="1.1" id="Layer_1" xmlns="http://www.w3.org/2000/svg" xmlns:xlink="http://www.w3.org/1999/xlink" x="0px" y="0px"
	 width="595.281px" height="95px" viewBox="0 0 595.281 95" enable-background="new 0 0 595.281 95" xml:space="preserve">
<g id="EU" display="none">
	<g display="inline">
		<path fill="#949087" d="M479.587,27.038v13.911h0.012v20.347h-0.004c0,12.652-3.832,16.737-9.83,16.737
			c-5.996,0-10.729-1.469-10.828-12.737h-0.006V40.949h0.08V27.038H436.7v39.94c0,0.179,0.012,0.347,0.014,0.522
			c0.039,3.812,0.469,7.308,1.322,10.467c0.027,0.103,0.061,0.198,0.09,0.3c2.357,5.973,5.209,10.795,11.373,13.383
			c3.15,1.322,7.641,1.959,11.314,2.062c5.334,0.151,10.592-1.788,13.117-3.536c2.65-1.834,4.727-4.311,6.229-7.229h-0.178v9.024
			h21.916V27.038H479.587z"/>
		<path fill="#949087" d="M404.561,52.322c0-6.021-4.517-10.912-10.912-10.912c-7.399,0-11.666,3.891-12.795,10.912H404.561z
			 M380.727,65.242c0.627,7.4,4.894,12.668,12.67,12.668c4.017,0,8.401-1.506,10.412-4.641h23.204
			c-5.02,14.049-18.69,20.571-33.489,20.571c-20.821,0-36.502-12.293-36.502-33.993c0-18.94,13.799-34.368,34.369-34.368
			c25.84,0,37.001,14.425,37.001,39.761L380.727,65.242L380.727,65.242z"/>
	</g>
</g>
<path display="none" fill="#DD2222" d="M332.615,27.173h16.85v15.106h-16.85v22.413c0,5.939,1.27,8.548,7.115,8.548
	c2.334,0,9.734-0.025,9.734-0.025V92.18h-19.301c-9.812,0-20.67-1.593-20.67-19.191v-30.71h-10.277V27.173h10.277V3.033h23.12
	L332.615,27.173L332.615,27.173z"/>
<polygon display="none" fill="#DD2222" points="88.787,72.466 88.787,17.886 89.032,17.886 108.357,72.466 118.022,72.466 
	93.468,3.033 78.278,3.033 78.278,72.466 "/>
<polygon display="none" fill="#DD2222" points="131.232,72.466 150.554,17.886 150.793,17.886 150.793,72.466 161.298,72.466 
	161.298,3.033 146.122,3.033 121.445,72.466 "/>
<path display="none" fill="#DD2222" d="M207.047,40.052c3.724,0,7.591,1.605,7.591,5.946c0,4.087-3.163,5.07-6.315,5.693
	c-11.528,2.302-33.131,1.781-34.041,20.773h23.435c0.073-4.199,2.737-5.559,7.806-6.787c3.155-0.736,6.31-1.604,9.116-3.096v5.953
	c-0.075,1.5-0.412,2.77-0.824,3.93h23.003v-21.76c0-12.396,0.24-25.142-28.731-25.142c-14.347,0-30.467,2.977-31.158,21.061h21.476
	C198.523,43.896,199.931,40.052,207.047,40.052"/>
<path display="none" fill="#DD2222" d="M270.273,72.466v-6.405c0-13.761,4.883-19.438,14.004-19.438c4.668,0,6.758,0.739,9.1,1.596
	V26.553c-2.219-0.622-4.432-0.991-6.787-0.991c-8.4,0-13.299,4.207-17.027,11.894h-0.25V27.173h-22.168v45.293H270.273z"/>
<path display="none" fill="#DD2222" d="M37.832,41.657c-13.428-3.216-26.736-4.823-26.736-15.726
	c0-11.521,9.341-15.106,18.681-15.106c11.439,0,19.379,5.454,20.665,18.081h10.517C60.246,9.457,47.286,0.921,30.241,0.921
	C15.057,0.921,0,8.849,0,26.802C0,43.029,13.43,47.11,26.738,50.22c13.311,3.08,26.627,5.188,26.627,17.328
	c0,1.836-0.294,3.455-0.73,4.918h11.191c0.343-1.659,0.626-3.37,0.626-5.295C64.453,49.839,51.137,44.881,37.832,41.657"/>
<rect x="1.843" y="61.48" display="none" fill="#DD2222" width="10.351" height="10.986"/>
<g id="GUIDES" display="none">
</g>
<g>
	<path fill="#DD2222" d="M332.615,28.557h16.85v15.107h-16.85v22.413c0,5.939,1.27,8.547,7.115,8.547
		c2.334,0,9.734-0.025,9.734-0.025v18.965h-19.301c-9.811,0-20.67-1.592-20.67-19.191V43.664h-10.277V28.557h10.277V4.417h23.121
		V28.557z"/>
	<polygon fill="#DD2222" points="88.787,73.85 88.787,19.27 89.032,19.27 108.357,73.85 118.022,73.85 93.468,4.417 78.278,4.417 
		78.278,73.85 	"/>
	<polygon fill="#DD2222" points="131.232,73.85 150.554,19.27 150.793,19.27 150.793,73.85 161.298,73.85 161.298,4.417 
		146.122,4.417 121.445,73.85 	"/>
	<path fill="#DD2222" d="M207.047,41.436c3.724,0,7.591,1.605,7.591,5.946c0,4.087-3.163,5.071-6.315,5.694
		c-11.528,2.301-33.131,1.781-34.041,20.773h23.435c0.073-4.199,2.737-5.559,7.806-6.787c3.155-0.736,6.31-1.603,9.116-3.096v5.953
		c-0.075,1.5-0.412,2.77-0.824,3.93h23.003V52.088c0-12.396,0.24-25.142-28.731-25.142c-14.347,0-30.467,2.977-31.158,21.061h21.476
		C198.523,45.281,199.931,41.436,207.047,41.436"/>
	<path fill="#DD2222" d="M270.273,73.85v-6.406c0-13.76,4.883-19.437,14.004-19.437c4.668,0,6.758,0.739,9.1,1.596V27.937
		c-2.219-0.622-4.432-0.991-6.787-0.991c-8.4,0-13.299,4.207-17.027,11.894h-0.25V28.557h-22.168V73.85H270.273z"/>
	<path fill="#DD2222" d="M37.832,43.041c-13.428-3.216-26.736-4.823-26.736-15.726c0-11.521,9.341-15.106,18.681-15.106
		c11.439,0,19.379,5.454,20.664,18.081h10.517C60.246,10.841,47.286,2.305,30.241,2.305C15.057,2.305,0,10.233,0,28.187
		c0,16.227,13.43,20.308,26.738,23.417c13.311,3.08,26.627,5.188,26.627,17.328c0,1.836-0.295,3.455-0.73,4.918h11.191
		c0.343-1.66,0.626-3.371,0.626-5.295C64.453,51.223,51.137,46.266,37.832,43.041"/>
</g>
<rect x="1.843" y="62.866" fill="#DD2222" width="10.351" height="10.986"/>
<polygon display="none" fill="#DD2222" points="131.166,73.676 150.479,19.123 150.719,19.123 150.719,73.676 161.218,73.676 
	161.218,4.275 146.049,4.275 121.383,73.676 "/>
<path fill="#949087" d="M392.365,44.768c-8.903,0-10.907,8.398-10.907,16.045c0,7.775,2.004,16.172,10.907,16.172
	c8.9,0,10.907-8.396,10.907-16.172C403.272,53.167,401.265,44.768,392.365,44.768 M357.51,3.894h24.823V35.49h0.253
	c3.76-5.52,10.406-8.778,17.803-8.778c21.814,0,27.706,18.553,27.706,33.853c0,16.299-8.896,34.476-27.331,34.476
	c-12.161,0-15.922-4.637-19.057-8.773h-0.25v7.145H357.51V3.894z"/>
<path fill="#949087" d="M481.164,53.543c0-6.019-4.513-10.907-10.91-10.907c-7.395,0-11.66,3.887-12.786,10.907H481.164z
	 M457.339,66.456c0.628,7.396,4.893,12.662,12.663,12.662c4.013,0,8.401-1.504,10.407-4.637h23.194
	c-5.016,14.045-18.68,20.56-33.476,20.56c-20.811,0-36.484-12.283-36.484-33.976c0-18.93,13.791-34.353,34.354-34.353
	c25.829,0,36.985,14.42,36.985,39.743H457.339z"/>
</svg>
