<?xml version="1.0" encoding="utf-8"?>
<!-- Generator: Adobe Illustrator 16.2.1, SVG Export Plug-In . SVG Version: 6.00 Build 0)  -->
<!DOCTYPE svg PUBLIC "-//W3C//DTD SVG 1.1//EN" "http://www.w3.org/Graphics/SVG/1.1/DTD/svg11.dtd">
<svg version="1.1" id="Layer_1" xmlns="http://www.w3.org/2000/svg" xmlns:xlink="http://www.w3.org/1999/xlink" x="0px" y="0px"
	 width="595.281px" height="95px" viewBox="0 0 595.281 95" enable-background="new 0 0 595.281 95" xml:space="preserve">
<g id="GUIDES">
</g>
<g>
	<path fill="#949087" d="M458.104,2.333v45.105l19.612-20.379l23.971,0.018l-24.492,23.864l27.256,41.071l-25.132-0.041
		l-16.477-26.803l-4.738,4.486v22.357h-22.42V2.333H458.104z"/>
	<path fill="#949087" d="M392.752,43.424c-8.9,0-10.907,8.398-10.907,16.045c0,7.775,2.007,16.172,10.907,16.172
		c8.903,0,10.907-8.396,10.907-16.172C403.659,51.822,401.655,43.424,392.752,43.424 M427.606,92.068h-23.947v-7.145h-0.25
		c-3.135,4.137-6.896,8.773-19.057,8.773c-18.435,0-27.331-18.178-27.331-34.477c0-15.299,5.892-33.853,27.706-33.853
		c7.396,0,14.043,3.258,17.803,8.778h0.253V2.549h24.823V92.068z"/>
</g>
<g>
	<path fill="#DD2222" d="M332.615,27.172h16.85v15.106h-16.85v22.413c0,5.939,1.27,8.547,7.115,8.547
		c2.334,0,9.734-0.025,9.734-0.025v18.965h-19.301c-9.811,0-20.67-1.592-20.67-19.191V42.279h-10.277V27.172h10.277V3.032h23.121
		V27.172z"/>
	<polygon fill="#DD2222" points="88.787,72.466 88.787,17.885 89.032,17.885 108.357,72.466 118.022,72.466 93.468,3.033 
		78.278,3.033 78.278,72.466 	"/>
	<polygon fill="#DD2222" points="131.232,72.466 150.554,17.885 150.793,17.885 150.793,72.466 161.298,72.466 161.298,3.033 
		146.122,3.033 121.445,72.466 	"/>
	<path fill="#DD2222" d="M207.047,40.051c3.724,0,7.591,1.605,7.591,5.946c0,4.086-3.163,5.071-6.315,5.694
		c-11.528,2.301-33.131,1.781-34.041,20.773h23.435c0.073-4.199,2.737-5.559,7.806-6.787c3.155-0.736,6.31-1.604,9.116-3.096v5.953
		c-0.075,1.5-0.412,2.77-0.824,3.93h23.003V50.703c0-12.395,0.24-25.142-28.731-25.142c-14.347,0-30.467,2.977-31.158,21.061h21.476
		C198.523,43.896,199.931,40.051,207.047,40.051"/>
	<path fill="#DD2222" d="M270.273,72.465v-6.406c0-13.76,4.883-19.437,14.004-19.437c4.668,0,6.758,0.739,9.1,1.597V26.552
		c-2.219-0.622-4.432-0.991-6.787-0.991c-8.4,0-13.299,4.207-17.027,11.894h-0.25V27.172h-22.168v45.292H270.273z"/>
	<path fill="#DD2222" d="M37.832,41.656C24.404,38.44,11.096,36.833,11.096,25.93c0-11.521,9.341-15.106,18.681-15.106
		c11.439,0,19.379,5.454,20.665,18.081h10.517C60.246,9.456,47.286,0.92,30.241,0.92C15.057,0.92,0,8.848,0,26.802
		C0,43.029,13.43,47.11,26.738,50.219c13.311,3.08,26.627,5.188,26.627,17.328c0,1.836-0.294,3.455-0.73,4.918h11.191
		c0.343-1.66,0.626-3.371,0.626-5.295C64.453,49.838,51.137,44.881,37.832,41.656"/>
</g>
<rect x="1.843" y="61.48" fill="#DD2222" width="10.351" height="10.986"/>
<g>
	<path fill="#DD2222" d="M332.615,27.172h16.85v15.106h-16.85v22.414c0,5.939,1.27,8.547,7.115,8.547
		c2.334,0,9.734-0.025,9.734-0.025v18.965h-19.301c-9.811,0-20.67-1.592-20.67-19.191V42.279h-10.277V27.172h10.277V3.032h23.121
		V27.172z"/>
	<polygon fill="#DD2222" points="88.787,72.466 88.787,17.885 89.032,17.885 108.357,72.466 118.022,72.466 93.468,3.032 
		78.278,3.032 78.278,72.466 	"/>
	<polygon fill="#DD2222" points="131.232,72.466 150.554,17.885 150.793,17.885 150.793,72.466 161.298,72.466 161.298,3.032 
		146.122,3.032 121.445,72.466 	"/>
	<path fill="#DD2222" d="M207.047,40.051c3.724,0,7.591,1.605,7.591,5.946c0,4.087-3.163,5.072-6.315,5.695
		c-11.528,2.301-33.131,1.781-34.041,20.773h23.435c0.073-4.199,2.737-5.559,7.806-6.787c3.155-0.736,6.31-1.604,9.116-3.096v5.953
		c-0.075,1.5-0.412,2.77-0.824,3.93h23.003V50.704c0-12.396,0.24-25.143-28.731-25.143c-14.347,0-30.467,2.977-31.158,21.061h21.476
		C198.523,43.896,199.931,40.051,207.047,40.051"/>
	<path fill="#DD2222" d="M270.273,72.466V66.06c0-13.76,4.883-19.438,14.004-19.438c4.668,0,6.758,0.739,9.1,1.597V26.552
		c-2.219-0.622-4.432-0.991-6.787-0.991c-8.4,0-13.299,4.207-17.027,11.894h-0.25V27.172h-22.168v45.293H270.273z"/>
	<path fill="#DD2222" d="M37.832,41.656C24.404,38.44,11.096,36.833,11.096,25.93c0-11.521,9.341-15.106,18.681-15.106
		c11.439,0,19.379,5.454,20.665,18.081h10.517C60.246,9.456,47.286,0.92,30.241,0.92C15.057,0.92,0,8.848,0,26.802
		C0,43.029,13.43,47.11,26.738,50.22c13.311,3.08,26.627,5.188,26.627,17.328c0,1.836-0.294,3.455-0.73,4.918h11.191
		c0.343-1.66,0.626-3.371,0.626-5.295C64.453,49.839,51.137,44.881,37.832,41.656"/>
</g>
<rect x="1.843" y="61.481" fill="#DB0A30" width="10.351" height="10.986"/>
<g>
	<path fill="#DD2222" d="M332.615,27.172h16.85v15.106h-16.85v22.413c0,5.939,1.27,8.547,7.115,8.547
		c2.334,0,9.734-0.025,9.734-0.025v18.965h-19.301c-9.811,0-20.67-1.592-20.67-19.191V42.279h-10.277V27.172h10.277V3.032h23.121
		V27.172z"/>
	<polygon fill="#DD2222" points="88.786,72.466 88.786,17.885 89.031,17.885 108.357,72.466 118.022,72.466 93.468,3.033 
		78.278,3.033 78.278,72.466 	"/>
	<polygon fill="#DD2222" points="131.232,72.466 150.554,17.885 150.793,17.885 150.793,72.466 161.298,72.466 161.298,3.033 
		146.121,3.033 121.444,72.466 	"/>
	<path fill="#DD2222" d="M207.047,40.051c3.725,0,7.591,1.605,7.591,5.946c0,4.086-3.162,5.071-6.314,5.694
		c-11.528,2.301-33.132,1.781-34.041,20.773h23.435c0.073-4.199,2.737-5.559,7.806-6.787c3.155-0.736,6.31-1.604,9.115-3.096v5.953
		c-0.075,1.5-0.411,2.77-0.824,3.93h23.004V50.703c0-12.395,0.24-25.142-28.731-25.142c-14.347,0-30.467,2.977-31.158,21.061h21.476
		C198.523,43.896,199.931,40.051,207.047,40.051"/>
	<path fill="#DD2222" d="M270.273,72.465v-6.406c0-13.76,4.883-19.437,14.004-19.437c4.668,0,6.758,0.739,9.1,1.597V26.552
		c-2.219-0.622-4.432-0.991-6.787-0.991c-8.4,0-13.299,4.207-17.027,11.894h-0.25V27.172h-22.168v45.292H270.273z"/>
	<path fill="#DD2222" d="M37.832,41.656C24.404,38.44,11.096,36.833,11.096,25.93c0-11.521,9.341-15.106,18.681-15.106
		c11.439,0,19.379,5.454,20.664,18.081h10.517C60.246,9.456,47.285,0.92,30.241,0.92C15.057,0.92,0,8.848,0,26.802
		C0,43.029,13.43,47.11,26.738,50.219c13.311,3.08,26.627,5.188,26.627,17.328c0,1.836-0.294,3.455-0.729,4.918h11.19
		c0.343-1.66,0.627-3.371,0.627-5.295C64.453,49.838,51.137,44.881,37.832,41.656"/>
</g>
<rect x="1.843" y="61.48" fill="#DD2222" width="10.351" height="10.986"/>
<g>
	<path fill="#DD2222" d="M332.615,27.172h16.85v15.106h-16.85v22.414c0,5.939,1.27,8.547,7.115,8.547
		c2.334,0,9.734-0.025,9.734-0.025v18.965h-19.301c-9.811,0-20.67-1.592-20.67-19.191V42.279h-10.277V27.172h10.277V3.032h23.121
		V27.172z"/>
	<polygon fill="#DD2222" points="88.787,72.466 88.787,17.885 89.032,17.885 108.357,72.466 118.022,72.466 93.468,3.032 
		78.278,3.032 78.278,72.466 	"/>
	<polygon fill="#DD2222" points="131.232,72.466 150.554,17.885 150.793,17.885 150.793,72.466 161.298,72.466 161.298,3.032 
		146.122,3.032 121.445,72.466 	"/>
	<path fill="#DD2222" d="M207.047,40.051c3.724,0,7.591,1.605,7.591,5.946c0,4.087-3.163,5.072-6.315,5.695
		c-11.528,2.301-33.131,1.781-34.041,20.773h23.435c0.073-4.199,2.737-5.559,7.806-6.787c3.155-0.736,6.31-1.604,9.116-3.096v5.953
		c-0.075,1.5-0.412,2.77-0.824,3.93h23.003V50.704c0-12.396,0.24-25.143-28.731-25.143c-14.347,0-30.467,2.977-31.158,21.061h21.476
		C198.523,43.896,199.931,40.051,207.047,40.051"/>
	<path fill="#DD2222" d="M270.273,72.466V66.06c0-13.76,4.883-19.438,14.004-19.438c4.668,0,6.758,0.739,9.1,1.597V26.552
		c-2.219-0.622-4.432-0.991-6.787-0.991c-8.4,0-13.299,4.207-17.027,11.894h-0.25V27.172h-22.168v45.293H270.273z"/>
	<path fill="#DD2222" d="M37.832,41.656C24.404,38.44,11.096,36.833,11.096,25.93c0-11.521,9.341-15.106,18.681-15.106
		c11.439,0,19.379,5.454,20.665,18.081h10.517C60.246,9.456,47.286,0.92,30.241,0.92C15.057,0.92,0,8.848,0,26.802
		C0,43.029,13.43,47.11,26.738,50.22c13.311,3.08,26.627,5.188,26.627,17.328c0,1.836-0.294,3.455-0.73,4.918h11.191
		c0.343-1.66,0.626-3.371,0.626-5.295C64.453,49.839,51.137,44.881,37.832,41.656"/>
</g>
<rect x="1.843" y="61.481" fill="#DD2222" width="10.351" height="10.986"/>
<g>
	<path fill="#DD2222" d="M332.615,27.172h16.85v15.106h-16.85v22.413c0,5.939,1.27,8.547,7.115,8.547
		c2.334,0,9.734-0.025,9.734-0.025v18.965h-19.301c-9.811,0-20.67-1.592-20.67-19.191V42.279h-10.277V27.172h10.277V3.032h23.121
		V27.172z"/>
	<polygon fill="#DD2222" points="88.787,72.466 88.787,17.885 89.032,17.885 108.357,72.466 118.022,72.466 93.468,3.033 
		78.278,3.033 78.278,72.466 	"/>
	<polygon fill="#DD2222" points="131.232,72.466 150.554,17.885 150.793,17.885 150.793,72.466 161.298,72.466 161.298,3.033 
		146.122,3.033 121.445,72.466 	"/>
	<path fill="#DD2222" d="M207.047,40.051c3.724,0,7.591,1.605,7.591,5.946c0,4.086-3.163,5.071-6.315,5.694
		c-11.528,2.301-33.131,1.781-34.041,20.773h23.435c0.073-4.199,2.737-5.559,7.806-6.787c3.155-0.736,6.31-1.604,9.116-3.096v5.953
		c-0.075,1.5-0.412,2.77-0.824,3.93h23.003V50.703c0-12.395,0.24-25.142-28.731-25.142c-14.347,0-30.467,2.977-31.158,21.061h21.476
		C198.523,43.896,199.931,40.051,207.047,40.051"/>
	<path fill="#DD2222" d="M270.273,72.465v-6.406c0-13.76,4.883-19.437,14.004-19.437c4.668,0,6.758,0.739,9.1,1.597V26.552
		c-2.219-0.622-4.432-0.991-6.787-0.991c-8.4,0-13.299,4.207-17.027,11.894h-0.25V27.172h-22.168v45.292H270.273z"/>
	<path fill="#DD2222" d="M37.832,41.656C24.404,38.44,11.096,36.833,11.096,25.93c0-11.521,9.341-15.106,18.681-15.106
		c11.439,0,19.379,5.454,20.665,18.081h10.517C60.246,9.456,47.286,0.92,30.241,0.92C15.057,0.92,0,8.848,0,26.802
		C0,43.029,13.43,47.11,26.738,50.219c13.311,3.08,26.627,5.188,26.627,17.328c0,1.836-0.294,3.455-0.73,4.918h11.191
		c0.343-1.66,0.626-3.371,0.626-5.295C64.453,49.838,51.137,44.881,37.832,41.656"/>
</g>
<rect x="1.843" y="61.48" fill="#DD2222" width="10.351" height="10.986"/>
<rect x="1.843" y="61.48" fill="#DD2222" width="10.351" height="10.986"/>
<polygon fill="#DD2222" points="131.246,72.466 150.559,17.912 150.799,17.912 150.799,72.466 161.298,72.466 161.298,3.065 
	146.129,3.065 121.463,72.466 "/>
<rect x="1.834" y="61.314" fill="#DD2222" width="10.346" height="10.982"/>
<g>
	<path fill="#DD2222" d="M332.615,27.172h16.85v15.106h-16.85v22.413c0,5.939,1.27,8.547,7.115,8.547
		c2.334,0,9.734-0.025,9.734-0.025v18.965h-19.301c-9.811,0-20.67-1.592-20.67-19.191V42.279h-10.277V27.172h10.277V3.032h23.121
		V27.172z"/>
	<polygon fill="#DD2222" points="88.787,72.466 88.787,17.885 89.032,17.885 108.357,72.466 118.022,72.466 93.469,3.033 
		78.278,3.033 78.278,72.466 	"/>
	<polygon fill="#DD2222" points="131.232,72.466 150.554,17.885 150.794,17.885 150.794,72.466 161.298,72.466 161.298,3.033 
		146.122,3.033 121.445,72.466 	"/>
	<path fill="#DD2222" d="M207.048,40.051c3.724,0,7.591,1.605,7.591,5.946c0,4.086-3.163,5.071-6.315,5.694
		c-11.528,2.301-33.131,1.781-34.041,20.773h23.435c0.073-4.199,2.737-5.559,7.806-6.787c3.155-0.736,6.31-1.604,9.116-3.096v5.953
		c-0.075,1.5-0.412,2.77-0.824,3.93h23.003V50.703c0-12.395,0.24-25.142-28.731-25.142c-14.347,0-30.467,2.977-31.158,21.061h21.477
		C198.523,43.896,199.932,40.051,207.048,40.051"/>
	<path fill="#DD2222" d="M270.273,72.465v-6.406c0-13.76,4.883-19.437,14.004-19.437c4.668,0,6.758,0.739,9.1,1.597V26.552
		c-2.219-0.622-4.432-0.991-6.787-0.991c-8.4,0-13.299,4.207-17.027,11.894h-0.25V27.172h-22.168v45.292H270.273z"/>
	<path fill="#DD2222" d="M37.832,41.656C24.404,38.44,11.096,36.833,11.096,25.93c0-11.521,9.342-15.106,18.681-15.106
		c11.439,0,19.379,5.454,20.665,18.081h10.517C60.246,9.456,47.286,0.92,30.241,0.92C15.057,0.92,0,8.848,0,26.802
		C0,43.029,13.43,47.11,26.738,50.219c13.311,3.08,26.628,5.188,26.628,17.328c0,1.836-0.295,3.455-0.73,4.918h11.191
		c0.343-1.66,0.626-3.371,0.626-5.295C64.453,49.838,51.137,44.881,37.832,41.656"/>
</g>
<rect x="1.843" y="61.48" fill="#DD2222" width="10.352" height="10.986"/>
<rect x="1.843" y="61.48" fill="#DD2222" width="10.352" height="10.986"/>
<rect x="1.843" y="61.48" fill="#DD2222" width="10.352" height="10.986"/>
<polygon fill="#DD2222" points="131.246,72.466 150.559,17.912 150.799,17.912 150.799,72.466 161.298,72.466 161.298,3.065 
	146.13,3.065 121.463,72.466 "/>
<rect x="1.835" y="61.314" fill="#DD2222" width="10.346" height="10.982"/>
<path fill="#DD2222" d="M332.615,27.172h16.85v15.106h-16.85v22.413c0,5.939,1.27,8.547,7.115,8.547
	c2.334,0,9.734-0.025,9.734-0.025v18.965h-19.301c-9.811,0-20.67-1.592-20.67-19.191V42.279h-10.277V27.172h10.277V3.032h23.121
	V27.172z"/>
<polygon fill="#DD2222" points="88.787,72.466 88.787,17.885 89.032,17.885 108.357,72.466 118.022,72.466 93.468,3.033 
	78.278,3.033 78.278,72.466 "/>
<path fill="#DD2222" d="M207.047,40.051c3.724,0,7.591,1.605,7.591,5.946c0,4.086-3.163,5.071-6.315,5.694
	c-11.528,2.301-33.131,1.781-34.041,20.773h23.435c0.073-4.199,2.737-5.559,7.806-6.787c3.155-0.736,6.31-1.604,9.116-3.096v5.953
	c-0.075,1.5-0.412,2.77-0.824,3.93h23.003V50.703c0-12.395,0.24-25.142-28.731-25.142c-14.347,0-30.467,2.977-31.158,21.061h21.476
	C198.523,43.896,199.931,40.051,207.047,40.051"/>
<path fill="#DD2222" d="M270.273,72.465v-6.406c0-13.76,4.883-19.437,14.004-19.437c4.668,0,6.758,0.739,9.1,1.597V26.552
	c-2.219-0.622-4.432-0.991-6.787-0.991c-8.4,0-13.299,4.207-17.027,11.894h-0.25V27.172h-22.168v45.292H270.273z"/>
<path fill="#DD2222" d="M37.832,41.656C24.404,38.44,11.096,36.833,11.096,25.93c0-11.521,9.341-15.106,18.681-15.106
	c11.439,0,19.379,5.454,20.665,18.081h10.517C60.246,9.456,47.286,0.92,30.241,0.92C15.057,0.92,0,8.848,0,26.802
	C0,43.029,13.43,47.11,26.738,50.219c13.311,3.08,26.627,5.188,26.627,17.328c0,1.836-0.294,3.455-0.73,4.918h11.191
	c0.343-1.66,0.626-3.371,0.626-5.295C64.453,49.838,51.137,44.881,37.832,41.656"/>
<rect x="1.843" y="61.48" fill="#DD2222" width="10.351" height="10.986"/>
<rect x="1.834" y="61.314" fill="#DD2222" width="10.346" height="10.982"/>
<polygon fill="#DD2222" points="131.232,72.466 150.554,17.886 150.793,17.886 150.793,72.466 161.298,72.466 161.298,3.032 
	146.121,3.032 121.444,72.466 "/>
</svg>
